<svg width="25" height="27" viewBox="0 0 25 27" fill="none" xmlns="http://www.w3.org/2000/svg">
<path d="M2.16354 8.10283C3.6624 5.77763 6.00009 4.06292 8.73485 3.39107C8.94557 3.33976 9.11914 3.18816 9.20041 2.98466C9.28226 2.78057 9.26253 2.54935 9.14759 2.36237C8.27219 0.944357 6.7234 0 4.95402 0C2.21869 0 0 2.25324 0 5.03264C0 6.21235 0.401128 7.29591 1.07103 8.15297C1.20513 8.3258 1.41295 8.42135 1.62948 8.41133C1.846 8.4013 2.04512 8.28628 2.16354 8.10283Z" fill="#AF6D79"/>
<path d="M20.046 0C18.2847 0 16.7412 0.935509 15.864 2.34408C15.7479 2.53048 15.7276 2.76347 15.8095 2.96874C15.8919 3.1746 16.066 3.3256 16.2791 3.37633C19.0214 4.03225 21.3672 5.73516 22.8788 8.05269C22.999 8.23673 23.1993 8.35057 23.417 8.35824C23.6347 8.3665 23.8413 8.2674 23.9748 8.09221C24.6163 7.24518 25 6.1858 25 5.03323C24.9983 2.25324 22.7813 0 20.046 0Z" fill="#AF6D79"/>
<path d="M23.4513 15.4143C23.4513 13.4713 22.9538 11.6451 22.0865 10.056C20.4791 7.11265 17.5922 4.99685 14.1945 4.46716C13.6529 4.38281 13.1032 4.32559 12.5384 4.32559C11.9486 4.32559 11.3739 4.38694 10.809 4.47895C7.42586 5.03047 4.55352 7.15512 2.96294 10.102C2.11134 11.6805 1.62546 13.4902 1.62546 15.4143C1.62546 18.7092 3.05524 21.665 5.3076 23.6964L4.38808 25.0124C3.99217 25.5792 4.12337 26.3637 4.68123 26.7672C4.89892 26.9241 5.14912 27.0002 5.39699 27.0002C5.78477 27.0002 6.16674 26.8156 6.40765 26.4705L7.32659 25.1551C8.87596 26.0145 10.6517 26.5041 12.5384 26.5041C14.4244 26.5041 16.2002 26.0145 17.7495 25.1551L18.6685 26.4705C18.91 26.8162 19.2914 27.0002 19.6791 27.0002C19.927 27.0002 20.1766 26.9241 20.3943 26.7672C20.9522 26.3637 21.084 25.5792 20.6881 25.0124L19.7685 23.6964C22.0209 21.665 23.4513 18.7092 23.4513 15.4143ZM12.5389 23.4021C8.20373 23.4021 4.67775 19.8193 4.67775 15.4143C4.67775 14.0411 5.02083 12.7487 5.62339 11.6186C6.77047 9.46912 8.86261 7.92076 11.3274 7.53086C11.7233 7.46834 12.1256 7.42587 12.5389 7.42587C12.9279 7.42587 13.3081 7.46421 13.6825 7.52024C16.1683 7.89067 18.283 9.43904 19.4435 11.5979C20.053 12.7322 20.3995 14.0316 20.3995 15.4137C20.3995 19.8193 16.8736 23.4021 12.5389 23.4021Z" fill="#AF6D79"/>
<path d="M16.9426 17.2827L13.9437 15.4011C13.8816 15.0448 13.6918 14.7375 13.4253 14.5198L13.5623 10.6964C13.5792 10.208 13.2042 9.79802 12.7241 9.77974C12.2452 9.75732 11.84 10.1431 11.822 10.6315L11.6844 14.4591C11.3123 14.7257 11.0673 15.1645 11.0673 15.6629C11.0673 16.4775 11.7169 17.137 12.5186 17.137C12.7467 17.137 12.9598 17.0786 13.1513 16.9836L16.0277 18.7898C16.1705 18.8782 16.329 18.9213 16.4846 18.9213C16.7766 18.9213 17.061 18.7727 17.2265 18.5019C17.4796 18.0849 17.3519 17.5399 16.9426 17.2827Z" fill="#AF6D79"/>
</svg>
