<svg width="14" height="11" viewBox="0 0 14 11" fill="none" xmlns="http://www.w3.org/2000/svg">
<path d="M1.34372 3.29956C1.52082 3.42118 2.05466 3.78237 2.94527 4.38296C3.8359 4.98355 4.51819 5.44598 4.99216 5.7703C5.04423 5.80585 5.15486 5.88312 5.32411 6.00223C5.49338 6.12143 5.63403 6.21774 5.74595 6.29121C5.85795 6.36466 5.99334 6.44704 6.15227 6.53825C6.31114 6.62937 6.46091 6.69792 6.60153 6.74329C6.74218 6.78904 6.87238 6.8117 6.99215 6.8117H7H7.00788C7.12765 6.8117 7.2579 6.78901 7.39855 6.74329C7.53912 6.69792 7.68902 6.62929 7.84776 6.53825C8.00658 6.44694 8.14197 6.36463 8.25397 6.29121C8.36597 6.21774 8.50651 6.12143 8.67584 6.00223C8.84505 5.88302 8.95582 5.80585 9.0079 5.7703C9.48698 5.44598 10.7058 4.62233 12.6641 3.2994C13.0443 3.04102 13.3619 2.72925 13.6171 2.3643C13.8725 1.99951 14 1.61683 14 1.21646C14 0.881896 13.8762 0.595502 13.6288 0.357307C13.3814 0.119058 13.0884 0 12.75 0H1.24995C0.848933 0 0.540324 0.13176 0.324178 0.39528C0.108059 0.658852 0 0.988305 0 1.38361C0 1.70292 0.143277 2.04893 0.429693 2.42145C0.716082 2.79398 1.02086 3.08672 1.34372 3.29956Z" fill="#B2B2B2"/>
<path d="M13.2186 3.87284C11.5105 4.99794 10.2134 5.87233 9.32814 6.49582C9.03127 6.70861 8.79045 6.87472 8.6055 6.99375C8.42054 7.11286 8.17457 7.2345 7.86722 7.35862C7.55998 7.48293 7.27365 7.54489 7.00798 7.54489H7.00001H6.99216C6.72654 7.54489 6.44004 7.48293 6.1328 7.35862C5.82556 7.2345 5.57943 7.11286 5.39453 6.99375C5.20969 6.87472 4.96878 6.70861 4.67194 6.49582C3.96877 5.99407 2.67453 5.11963 0.789141 3.87284C0.492191 3.68036 0.229171 3.45974 0 3.21143V9.24781C0 9.58254 0.122343 9.86878 0.367166 10.107C0.611934 10.3453 0.906258 10.4644 1.25003 10.4644H12.7501C13.0937 10.4644 13.388 10.3453 13.6328 10.107C13.8777 9.8687 14 9.58257 14 9.24781V3.21143C13.776 3.4546 13.5157 3.67522 13.2186 3.87284Z" fill="#B2B2B2"/>
</svg>
