<svg width="16" height="15" viewBox="0 0 16 15" fill="none" xmlns="http://www.w3.org/2000/svg">
<path d="M7.6648 7.50002C8.81916 7.50002 9.80443 7.13368 10.6209 6.40132C11.4374 5.66896 11.8458 4.7852 11.8458 3.74992C11.8458 2.71481 11.4374 1.83102 10.6209 1.09849C9.80417 0.366164 8.81886 -4.65127e-08 7.6648 -3.64511e-08C6.51075 -2.63894e-08 5.52529 0.366164 4.70884 1.09849C3.89223 1.83103 3.48393 2.71478 3.48393 3.74992C3.48393 4.7852 3.89223 5.66896 4.70884 6.40132C5.52552 7.13368 6.51071 7.50002 7.6648 7.50002Z" fill="#B2B2B2"/>
<path d="M15.2913 11.46C15.2658 11.1313 15.215 10.7764 15.1389 10.3955C15.0627 10.0146 14.9664 9.66154 14.8502 9.33587C14.7341 9.01045 14.578 8.69302 14.382 8.38374C14.1861 8.0745 13.9611 7.81088 13.7069 7.59269C13.4527 7.37456 13.1425 7.20053 12.7762 7.07034C12.4095 6.94019 12.0048 6.875 11.562 6.875C11.4968 6.875 11.3443 6.94498 11.1048 7.08498C10.8655 7.22498 10.595 7.38127 10.2938 7.55386C9.99264 7.72615 9.60047 7.88254 9.118 8.0223C8.63531 8.1623 8.15089 8.23232 7.66442 8.23232C7.17813 8.23232 6.69368 8.1623 6.21106 8.0223C5.72847 7.88254 5.33642 7.72615 5.0352 7.55386C4.73402 7.38127 4.46369 7.22502 4.22421 7.08498C3.98461 6.94498 3.83227 6.875 3.76694 6.875C3.32421 6.875 2.91953 6.94019 2.55303 7.07034C2.18645 7.20053 1.87619 7.3747 1.6221 7.59269C1.36809 7.81088 1.14306 8.0745 0.94717 8.38374C0.751276 8.69302 0.595232 9.01058 0.479076 9.33587C0.362958 9.66154 0.266747 10.0146 0.190555 10.3955C0.114287 10.7764 0.063493 11.131 0.0380577 11.46C0.0126605 11.7889 -1.24277e-08 12.1258 -1.32444e-08 12.4708C-1.50931e-08 13.252 0.264992 13.869 0.794787 14.3215C1.3247 14.7738 2.0288 14.9999 2.90702 14.9999L12.4227 14.9999C13.3008 14.9999 14.0049 14.7738 14.5348 14.3215C15.0649 13.869 15.3298 13.2521 15.3298 12.4709C15.3297 12.1258 15.317 11.7889 15.2913 11.46Z" fill="#B2B2B2"/>
</svg>
